P3
3 4
255
54
54
54
182
182
182
18
18
18
237
237
237
255
255
255
0
0
0
201
201
201
75
75
75
127
127
127
150
150
150
150
150
150
150
150
150
