P3
3 3
255
255
30
30
30
255
30
30
30
255
255
255
30
255
255
255
30
30
30
30
255
255
105
105
105
157
157
157
