P3
4 3
255
85
85
85
85
85
85
85
85
85
170
170
170
255
255
255
0
0
0
170
170
170
75
75
75
127
127
127
150
150
150
150
150
150
150
150
150
