P3
4 3
255
255
255
0
0
0
255
0
255
0
255
0
0
75
75
75
0
255
255
0
0
0
255
255
255
150
150
150
150
150
150
150
150
150
127
127
127
