P3
4 3
255
215
0
0
0
215
0
0
0
215
215
215
0
215
215
215
0
0
0
0
215
215
35
35
35
87
87
87
110
110
110
110
110
110
110
110
110
