P3
3 4
255
150
150
150
150
150
150
150
150
150
0
255
255
75
75
75
127
127
127
255
255
0
255
255
255
0
0
0
255
0
0
0
255
0
0
0
255
