P3
4 3
255
127
127
127
150
150
150
150
150
150
150
150
150
255
255
255
0
0
0
0
255
255
75
75
75
255
0
0
0
255
0
0
0
255
255
255
0
